<?xml version="1.0" encoding="UTF-8"?>
<svg id="Layer_1" xmlns="http://www.w3.org/2000/svg" version="1.1" viewBox="0 0 586 559">
  <!-- Generator: Adobe Illustrator 30.3.0, SVG Export Plug-In . SVG Version: 2.1.3 Build 182)  -->
  <defs>
    <style>
      .st0 {
        fill: #F3F3F3;
      }
    </style>
  </defs>
  <path id="chevL" class="st0" d="M28.39,2.31l118.57,145.6L28.39,293.51V2.31ZM110.26,147.91l-53.42-65.6v131.2l53.42-65.6Z"/>
  <path id="chevR" class="st0" d="M152.21,2.32l118.58,145.59-118.58,145.6V2.32ZM234.09,147.91l-53.43-65.6v131.21l53.43-65.61h0Z"/>
  <polygon id="F" class="st0" points="400.28 2.67 400.28 40.34 351.48 40.34 351.48 120.25 394.49 120.25 394.49 155.03 351.48 155.03 351.48 292.48 303.1 292.48 303.1 2.67 400.28 2.67"/>
  <path id="Afai" class="st0" d="M492.69,2.67l31.84,289.81h-45.49l-7.44-79.49h-28.95l-7.86,79.49h-43.42L422.39,2.67h70.3ZM468.29,176.97l-10.75-116.75-11.58,116.75h22.33Z"/>
  <rect id="Ifai" class="st0" x="533.92" y="2.25" width="49.63" height="290.23"/>
  <path id="Aact" class="st0" d="M83.86,318.36l25.65,233.19h-36.64l-6-63.96h-23.32l-6.33,63.96H2.25l24.98-233.19h56.63ZM64.21,458.61l-8.66-93.94-9.33,93.94h17.99Z"/>
  <path id="C" class="st0" d="M206.45,458.94v55.96c0,26.99-15.32,41.64-44.3,41.64s-44.97-14.65-44.97-43.64v-158.23c0-23.65,13.66-40.97,44.97-40.97s44.3,16.65,44.3,38.31v46.63h-36.31v-40.64c0-5.99-2.66-8.32-7.66-8.32-4.66,0-7.33,2.66-7.33,8.32l.34,154.9c0,7.33,1.99,10.33,7.32,10.33,5.67,0,7.33-3.33,7.33-10.33v-53.96h36.31Z"/>
  <polygon id="T" class="st0" points="308.01 318.36 308.01 348.34 281.36 348.34 281.36 551.55 241.39 551.55 241.39 348.34 214.74 348.34 214.74 318.36 308.01 318.36"/>
  <rect id="Iact" class="st0" x="319.05" y="318.03" width="39.97" height="233.52"/>
  <path id="O" class="st0" d="M464.61,354.67v160.23c0,26.99-16.99,41.64-45.97,41.64s-44.98-14.65-44.98-43.64v-158.23c0-23.65,13.66-40.97,44.98-40.97s45.97,19.32,45.97,40.97h0ZM426.63,512.9v-154.9c0-5.99-2.66-8.32-7.66-8.32-4.67,0-7.33,2.66-7.33,8.32l.33,154.9c0,7.33,2,10.33,7.33,10.33,5.66,0,7.33-3.33,7.33-10.33h0Z"/>
  <polygon id="N" class="st0" points="583.55 318.36 583.55 551.55 544.24 551.55 512.59 414.63 512.59 551.55 478.61 551.55 478.61 318.36 524.25 318.36 550.23 439.28 550.23 318.36 583.55 318.36"/>
</svg>