<svg xmlns="http://www.w3.org/2000/svg" width="2236" height="1563" viewBox="-57.2 -42.7 2236.2 1563.4"><defs><path id="c0" fill-rule="evenodd" d="M0,0 L118.57,145.6 L0,291.2 Z M28.45,80 L81.87,145.6 L28.45,211.2 Z M123.82,0 L242.4,145.6 L123.82,291.2 Z M152.27,80 L205.70,145.6 L152.27,211.2 Z"/></defs><g fill="#000000"><use href="#c0" transform="translate(-15.2,-28.7) scale(0.0839)"/><use href="#c0" transform="translate(17.8,-28.7) scale(0.0839)"/><use href="#c0" transform="translate(50.8,-28.7) scale(0.0839)"/><use href="#c0" transform="translate(83.8,-28.7) scale(0.0839)"/><use href="#c0" transform="translate(116.8,-28.7) scale(0.0839)"/><use href="#c0" transform="translate(149.9,-28.7) scale(0.0839)"/><use href="#c0" transform="translate(182.9,-28.7) scale(0.0839)"/><use href="#c0" transform="translate(215.9,-28.7) scale(0.0839)"/><use href="#c0" transform="translate(248.9,-28.7) scale(0.0839)"/><use href="#c0" transform="translate(281.9,-28.7) scale(0.0839)"/><use href="#c0" transform="translate(314.9,-28.7) scale(0.0839)"/><use href="#c0" transform="translate(347.9,-28.7) scale(0.0839)"/><use href="#c0" transform="translate(380.9,-28.7) scale(0.0839)"/><use href="#c0" transform="translate(413.9,-28.7) scale(0.0839)"/><use href="#c0" transform="translate(446.9,-28.7) scale(0.0839)"/><use href="#c0" transform="translate(479.9,-28.7) scale(0.0839)"/><use href="#c0" transform="translate(512.8,-28.7) scale(0.0839)"/><use href="#c0" transform="translate(578.8,-28.7) scale(0.0839)"/><use href="#c0" transform="translate(644.8,-28.7) scale(0.0839)"/><use href="#c0" transform="translate(710.8,-28.7) scale(0.0839)"/><use href="#c0" transform="translate(776.8,-28.7) scale(0.0839)"/><use href="#c0" transform="translate(842.8,-28.7) scale(0.0839)"/><use href="#c0" transform="translate(908.8,-28.7) scale(0.0839)"/><use href="#c0" transform="translate(1040.8,-28.7) scale(0.0839)"/><use href="#c0" transform="translate(-26.7,4.3) scale(0.0839)"/><use href="#c0" transform="translate(6.3,4.3) scale(0.0839)"/><use href="#c0" transform="translate(39.3,4.3) scale(0.0839)"/><use href="#c0" transform="translate(72.3,4.3) scale(0.0839)"/><use href="#c0" transform="translate(138.3,4.3) scale(0.0839)"/><use href="#c0" transform="translate(171.3,4.3) scale(0.0839)"/><use href="#c0" transform="translate(204.3,4.3) scale(0.0839)"/><use href="#c0" transform="translate(270.3,4.3) scale(0.0839)"/><use href="#c0" transform="translate(303.3,4.3) scale(0.0839)"/><use href="#c0" transform="translate(336.3,4.3) scale(0.0839)"/><use href="#c0" transform="translate(402.3,4.3) scale(0.0839)"/><use href="#c0" transform="translate(468.3,4.3) scale(0.0839)"/><use href="#c0" transform="translate(534.3,4.3) scale(0.0839)"/><use href="#c0" transform="translate(600.3,4.3) scale(0.0839)"/><use href="#c0" transform="translate(666.3,4.3) scale(0.0839)"/><use href="#c0" transform="translate(732.3,4.3) scale(0.0839)"/><use href="#c0" transform="translate(798.3,4.3) scale(0.0839)"/><use href="#c0" transform="translate(864.3,4.3) scale(0.0839)"/><use href="#c0" transform="translate(930.3,4.3) scale(0.0839)"/><use href="#c0" transform="translate(996.3,4.3) scale(0.0839)"/><use href="#c0" transform="translate(1062.3,4.3) scale(0.0839)"/><use href="#c0" transform="translate(1128.3,4.3) scale(0.0839)"/><use href="#c0" transform="translate(1194.3,4.3) scale(0.0839)"/><use href="#c0" transform="translate(1260.3,4.3) scale(0.0839)"/><use href="#c0" transform="translate(1326.3,4.3) scale(0.0839)"/><use href="#c0" transform="translate(1392.3,4.3) scale(0.0839)"/><use href="#c0" transform="translate(1458.3,4.3) scale(0.0839)"/><use href="#c0" transform="translate(1590.3,4.3) scale(0.0839)"/><use href="#c0" transform="translate(1722.3,4.3) scale(0.0839)"/><use href="#c0" transform="translate(1854.3,4.3) scale(0.0839)"/><use href="#c0" transform="translate(2118.3,4.3) scale(0.0839)"/><use href="#c0" transform="translate(-38.2,37.3) scale(0.0839)"/><use href="#c0" transform="translate(-5.2,37.3) scale(0.0839)"/><use href="#c0" transform="translate(27.8,37.3) scale(0.0839)"/><use href="#c0" transform="translate(60.8,37.3) scale(0.0839)"/><use href="#c0" transform="translate(93.8,37.3) scale(0.0839)"/><use href="#c0" transform="translate(126.7,37.3) scale(0.0839)"/><use href="#c0" transform="translate(159.7,37.3) scale(0.0839)"/><use href="#c0" transform="translate(192.7,37.3) scale(0.0839)"/><use href="#c0" transform="translate(225.7,37.3) scale(0.0839)"/><use href="#c0" transform="translate(258.7,37.3) scale(0.0839)"/><use href="#c0" transform="translate(291.7,37.3) scale(0.0839)"/><use href="#c0" transform="translate(324.7,37.3) scale(0.0839)"/><use href="#c0" transform="translate(357.7,37.3) scale(0.0839)"/><use href="#c0" transform="translate(390.7,37.3) scale(0.0839)"/><use href="#c0" transform="translate(423.7,37.3) scale(0.0839)"/><use href="#c0" transform="translate(456.7,37.3) scale(0.0839)"/><use href="#c0" transform="translate(522.8,37.3) scale(0.0839)"/><use href="#c0" transform="translate(555.8,37.3) scale(0.0839)"/><use href="#c0" transform="translate(588.8,37.3) scale(0.0839)"/><use href="#c0" transform="translate(654.8,37.3) scale(0.0839)"/><use href="#c0" transform="translate(852.8,37.3) scale(0.0839)"/><use href="#c0" transform="translate(984.8,37.3) scale(0.0839)"/><use href="#c0" transform="translate(1116.8,37.3) scale(0.0839)"/><use href="#c0" transform="translate(-16.8,70.3) scale(0.0839)"/><use href="#c0" transform="translate(16.2,70.3) scale(0.0839)"/><use href="#c0" transform="translate(49.2,70.3) scale(0.0839)"/><use href="#c0" transform="translate(82.2,70.3) scale(0.0839)"/><use href="#c0" transform="translate(115.2,70.3) scale(0.0839)"/><use href="#c0" transform="translate(148.2,70.3) scale(0.0839)"/><use href="#c0" transform="translate(214.2,70.3) scale(0.0839)"/><use href="#c0" transform="translate(280.2,70.3) scale(0.0839)"/><use href="#c0" transform="translate(346.2,70.3) scale(0.0839)"/><use href="#c0" transform="translate(478.2,70.3) scale(0.0839)"/><use href="#c0" transform="translate(544.2,70.3) scale(0.0839)"/><use href="#c0" transform="translate(610.2,70.3) scale(0.0839)"/><use href="#c0" transform="translate(676.2,70.3) scale(0.0839)"/><use href="#c0" transform="translate(742.2,70.3) scale(0.0839)"/><use href="#c0" transform="translate(808.2,70.3) scale(0.0839)"/><use href="#c0" transform="translate(874.2,70.3) scale(0.0839)"/><use href="#c0" transform="translate(940.2,70.3) scale(0.0839)"/><use href="#c0" transform="translate(1006.2,70.3) scale(0.0839)"/><use href="#c0" transform="translate(1072.2,70.3) scale(0.0839)"/><use href="#c0" transform="translate(1138.2,70.3) scale(0.0839)"/><use href="#c0" transform="translate(1204.2,70.3) scale(0.0839)"/><use href="#c0" transform="translate(1270.2,70.3) scale(0.0839)"/><use href="#c0" transform="translate(1336.2,70.3) scale(0.0839)"/><use href="#c0" transform="translate(1402.2,70.3) scale(0.0839)"/><use href="#c0" transform="translate(1534.2,70.3) scale(0.0839)"/><use href="#c0" transform="translate(1600.2,70.3) scale(0.0839)"/><use href="#c0" transform="translate(1666.2,70.3) scale(0.0839)"/><use href="#c0" transform="translate(-28.3,103.3) scale(0.0839)"/><use href="#c0" transform="translate(4.7,103.3) scale(0.0839)"/><use href="#c0" transform="translate(37.7,103.3) scale(0.0839)"/><use href="#c0" transform="translate(103.6,103.3) scale(0.0839)"/><use href="#c0" transform="translate(136.6,103.3) scale(0.0839)"/><use href="#c0" transform="translate(169.6,103.3) scale(0.0839)"/><use href="#c0" transform="translate(202.6,103.3) scale(0.0839)"/><use href="#c0" transform="translate(235.6,103.3) scale(0.0839)"/><use href="#c0" transform="translate(268.7,103.3) scale(0.0839)"/><use href="#c0" transform="translate(301.7,103.3) scale(0.0839)"/><use href="#c0" transform="translate(334.7,103.3) scale(0.0839)"/><use href="#c0" transform="translate(367.7,103.3) scale(0.0839)"/><use href="#c0" transform="translate(400.7,103.3) scale(0.0839)"/><use href="#c0" transform="translate(433.7,103.3) scale(0.0839)"/><use href="#c0" transform="translate(466.7,103.3) scale(0.0839)"/><use href="#c0" transform="translate(499.7,103.3) scale(0.0839)"/><use href="#c0" transform="translate(532.7,103.3) scale(0.0839)"/><use href="#c0" transform="translate(598.7,103.3) scale(0.0839)"/><use href="#c0" transform="translate(664.7,103.3) scale(0.0839)"/><use href="#c0" transform="translate(730.7,103.3) scale(0.0839)"/><use href="#c0" transform="translate(796.7,103.3) scale(0.0839)"/><use href="#c0" transform="translate(862.7,103.3) scale(0.0839)"/><use href="#c0" transform="translate(928.7,103.3) scale(0.0839)"/><use href="#c0" transform="translate(-39.9,136.3) scale(0.0839)"/><use href="#c0" transform="translate(-6.9,136.3) scale(0.0839)"/><use href="#c0" transform="translate(26.1,136.3) scale(0.0839)"/><use href="#c0" transform="translate(59.1,136.3) scale(0.0839)"/><use href="#c0" transform="translate(92.1,136.3) scale(0.0839)"/><use href="#c0" transform="translate(158.1,136.3) scale(0.0839)"/><use href="#c0" transform="translate(191.1,136.3) scale(0.0839)"/><use href="#c0" transform="translate(224.1,136.3) scale(0.0839)"/><use href="#c0" transform="translate(290.1,136.3) scale(0.0839)"/><use href="#c0" transform="translate(356.1,136.3) scale(0.0839)"/><use href="#c0" transform="translate(422.1,136.3) scale(0.0839)"/><use href="#c0" transform="translate(488.1,136.3) scale(0.0839)"/><use href="#c0" transform="translate(554.1,136.3) scale(0.0839)"/><use href="#c0" transform="translate(620.1,136.3) scale(0.0839)"/><use href="#c0" transform="translate(686.1,136.3) scale(0.0839)"/><use href="#c0" transform="translate(818.1,136.3) scale(0.0839)"/><use href="#c0" transform="translate(884.1,136.3) scale(0.0839)"/><use href="#c0" transform="translate(950.1,136.3) scale(0.0839)"/><use href="#c0" transform="translate(1016.1,136.3) scale(0.0839)"/><use href="#c0" transform="translate(1082.1,136.3) scale(0.0839)"/><use href="#c0" transform="translate(1148.1,136.3) scale(0.0839)"/><use href="#c0" transform="translate(1214.1,136.3) scale(0.0839)"/><use href="#c0" transform="translate(1280.1,136.3) scale(0.0839)"/><use href="#c0" transform="translate(1346.1,136.3) scale(0.0839)"/><use href="#c0" transform="translate(1478.1,136.3) scale(0.0839)"/><use href="#c0" transform="translate(1610.1,136.3) scale(0.0839)"/><use href="#c0" transform="translate(1742.1,136.3) scale(0.0839)"/><use href="#c0" transform="translate(1874.1,136.3) scale(0.0839)"/><use href="#c0" transform="translate(2006.1,136.3) scale(0.0839)"/><use href="#c0" transform="translate(14.6,169.3) scale(0.0839)"/><use href="#c0" transform="translate(47.6,169.3) scale(0.0839)"/><use href="#c0" transform="translate(80.6,169.3) scale(0.0839)"/><use href="#c0" transform="translate(113.6,169.3) scale(0.0839)"/><use href="#c0" transform="translate(146.6,169.3) scale(0.0839)"/><use href="#c0" transform="translate(179.6,169.3) scale(0.0839)"/><use href="#c0" transform="translate(212.6,169.3) scale(0.0839)"/><use href="#c0" transform="translate(245.6,169.3) scale(0.0839)"/><use href="#c0" transform="translate(278.6,169.3) scale(0.0839)"/><use href="#c0" transform="translate(311.6,169.3) scale(0.0839)"/><use href="#c0" transform="translate(344.6,169.3) scale(0.0839)"/><use href="#c0" transform="translate(377.6,169.3) scale(0.0839)"/><use href="#c0" transform="translate(410.6,169.3) scale(0.0839)"/><use href="#c0" transform="translate(443.6,169.3) scale(0.0839)"/><use href="#c0" transform="translate(509.6,169.3) scale(0.0839)"/><use href="#c0" transform="translate(542.6,169.3) scale(0.0839)"/><use href="#c0" transform="translate(575.6,169.3) scale(0.0839)"/><use href="#c0" transform="translate(641.6,169.3) scale(0.0839)"/><use href="#c0" transform="translate(674.6,169.3) scale(0.0839)"/><use href="#c0" transform="translate(707.6,169.3) scale(0.0839)"/><use href="#c0" transform="translate(773.6,169.3) scale(0.0839)"/><use href="#c0" transform="translate(839.6,169.3) scale(0.0839)"/><use href="#c0" transform="translate(971.6,169.3) scale(0.0839)"/><use href="#c0" transform="translate(1103.6,169.3) scale(0.0839)"/><use href="#c0" transform="translate(-30,202.3) scale(0.0839)"/><use href="#c0" transform="translate(3,202.3) scale(0.0839)"/><use href="#c0" transform="translate(36,202.3) scale(0.0839)"/><use href="#c0" transform="translate(69,202.3) scale(0.0839)"/><use href="#c0" transform="translate(102,202.3) scale(0.0839)"/><use href="#c0" transform="translate(135,202.3) scale(0.0839)"/><use href="#c0" transform="translate(168,202.3) scale(0.0839)"/><use href="#c0" transform="translate(234,202.3) scale(0.0839)"/><use href="#c0" transform="translate(300,202.3) scale(0.0839)"/><use href="#c0" transform="translate(366,202.3) scale(0.0839)"/><use href="#c0" transform="translate(432,202.3) scale(0.0839)"/><use href="#c0" transform="translate(498,202.3) scale(0.0839)"/><use href="#c0" transform="translate(564,202.3) scale(0.0839)"/><use href="#c0" transform="translate(630,202.3) scale(0.0839)"/><use href="#c0" transform="translate(696,202.3) scale(0.0839)"/><use href="#c0" transform="translate(762,202.3) scale(0.0839)"/><use href="#c0" transform="translate(828,202.3) scale(0.0839)"/><use href="#c0" transform="translate(894,202.3) scale(0.0839)"/><use href="#c0" transform="translate(960,202.3) scale(0.0839)"/><use href="#c0" transform="translate(1026,202.3) scale(0.0839)"/><use href="#c0" transform="translate(1092,202.3) scale(0.0839)"/><use href="#c0" transform="translate(1158,202.3) scale(0.0839)"/><use href="#c0" transform="translate(1224,202.3) scale(0.0839)"/><use href="#c0" transform="translate(1290,202.3) scale(0.0839)"/><use href="#c0" transform="translate(1356,202.3) scale(0.0839)"/><use href="#c0" transform="translate(1422,202.3) scale(0.0839)"/><use href="#c0" transform="translate(1488,202.3) scale(0.0839)"/><use href="#c0" transform="translate(1554,202.3) scale(0.0839)"/><use href="#c0" transform="translate(1686,202.3) scale(0.0839)"/><use href="#c0" transform="translate(-41.5,235.3) scale(0.0839)"/><use href="#c0" transform="translate(-8.5,235.3) scale(0.0839)"/><use href="#c0" transform="translate(24.5,235.3) scale(0.0839)"/><use href="#c0" transform="translate(57.5,235.3) scale(0.0839)"/><use href="#c0" transform="translate(90.5,235.3) scale(0.0839)"/><use href="#c0" transform="translate(123.5,235.3) scale(0.0839)"/><use href="#c0" transform="translate(156.5,235.3) scale(0.0839)"/><use href="#c0" transform="translate(189.5,235.3) scale(0.0839)"/><use href="#c0" transform="translate(222.5,235.3) scale(0.0839)"/><use href="#c0" transform="translate(255.4,235.3) scale(0.0839)"/><use href="#c0" transform="translate(288.4,235.3) scale(0.0839)"/><use href="#c0" transform="translate(321.4,235.3) scale(0.0839)"/><use href="#c0" transform="translate(354.4,235.3) scale(0.0839)"/><use href="#c0" transform="translate(387.4,235.3) scale(0.0839)"/><use href="#c0" transform="translate(420.4,235.3) scale(0.0839)"/><use href="#c0" transform="translate(453.4,235.3) scale(0.0839)"/><use href="#c0" transform="translate(486.4,235.3) scale(0.0839)"/><use href="#c0" transform="translate(519.4,235.3) scale(0.0839)"/><use href="#c0" transform="translate(585.4,235.3) scale(0.0839)"/><use href="#c0" transform="translate(651.4,235.3) scale(0.0839)"/><use href="#c0" transform="translate(717.4,235.3) scale(0.0839)"/><use href="#c0" transform="translate(783.4,235.3) scale(0.0839)"/><use href="#c0" transform="translate(849.4,235.3) scale(0.0839)"/><use href="#c0" transform="translate(915.4,235.3) scale(0.0839)"/><use href="#c0" transform="translate(1047.5,235.3) scale(0.0839)"/><use href="#c0" transform="translate(-20.1,268.3) scale(0.0839)"/><use href="#c0" transform="translate(12.9,268.3) scale(0.0839)"/><use href="#c0" transform="translate(45.9,268.3) scale(0.0839)"/><use href="#c0" transform="translate(78.9,268.3) scale(0.0839)"/><use href="#c0" transform="translate(144.9,268.3) scale(0.0839)"/><use href="#c0" transform="translate(177.9,268.3) scale(0.0839)"/><use href="#c0" transform="translate(210.9,268.3) scale(0.0839)"/><use href="#c0" transform="translate(276.9,268.3) scale(0.0839)"/><use href="#c0" transform="translate(309.9,268.3) scale(0.0839)"/><use href="#c0" transform="translate(342.9,268.3) scale(0.0839)"/><use href="#c0" transform="translate(408.9,268.3) scale(0.0839)"/><use href="#c0" transform="translate(474.9,268.3) scale(0.0839)"/><use href="#c0" transform="translate(540.9,268.3) scale(0.0839)"/><use href="#c0" transform="translate(606.9,268.3) scale(0.0839)"/><use href="#c0" transform="translate(672.9,268.3) scale(0.0839)"/><use href="#c0" transform="translate(738.9,268.3) scale(0.0839)"/><use href="#c0" transform="translate(804.9,268.3) scale(0.0839)"/><use href="#c0" transform="translate(870.9,268.3) scale(0.0839)"/><use href="#c0" transform="translate(936.9,268.3) scale(0.0839)"/><use href="#c0" transform="translate(1002.9,268.3) scale(0.0839)"/><use href="#c0" transform="translate(1068.9,268.3) scale(0.0839)"/><use href="#c0" transform="translate(1134.9,268.3) scale(0.0839)"/><use href="#c0" transform="translate(1200.9,268.3) scale(0.0839)"/><use href="#c0" transform="translate(1266.9,268.3) scale(0.0839)"/><use href="#c0" transform="translate(1332.9,268.3) scale(0.0839)"/><use href="#c0" transform="translate(1398.9,268.3) scale(0.0839)"/><use href="#c0" transform="translate(1464.9,268.3) scale(0.0839)"/><use href="#c0" transform="translate(1596.9,268.3) scale(0.0839)"/><use href="#c0" transform="translate(1728.9,268.3) scale(0.0839)"/><use href="#c0" transform="translate(1860.9,268.3) scale(0.0839)"/><use href="#c0" transform="translate(2124.9,268.3) scale(0.0839)"/><use href="#c0" transform="translate(-31.6,301.3) scale(0.0839)"/><use href="#c0" transform="translate(1.4,301.3) scale(0.0839)"/><use href="#c0" transform="translate(34.4,301.3) scale(0.0839)"/><use href="#c0" transform="translate(67.4,301.3) scale(0.0839)"/><use href="#c0" transform="translate(100.4,301.3) scale(0.0839)"/><use href="#c0" transform="translate(133.4,301.3) scale(0.0839)"/><use href="#c0" transform="translate(166.4,301.3) scale(0.0839)"/><use href="#c0" transform="translate(199.4,301.3) scale(0.0839)"/><use href="#c0" transform="translate(232.4,301.3) scale(0.0839)"/><use href="#c0" transform="translate(265.4,301.3) scale(0.0839)"/><use href="#c0" transform="translate(298.4,301.3) scale(0.0839)"/><use href="#c0" transform="translate(331.4,301.3) scale(0.0839)"/><use href="#c0" transform="translate(364.4,301.3) scale(0.0839)"/><use href="#c0" transform="translate(397.4,301.3) scale(0.0839)"/><use href="#c0" transform="translate(430.4,301.3) scale(0.0839)"/><use href="#c0" transform="translate(463.4,301.3) scale(0.0839)"/><use href="#c0" transform="translate(529.3,301.3) scale(0.0839)"/><use href="#c0" transform="translate(562.3,301.3) scale(0.0839)"/><use href="#c0" transform="translate(595.3,301.3) scale(0.0839)"/><use href="#c0" transform="translate(661.3,301.3) scale(0.0839)"/><use href="#c0" transform="translate(727.3,301.3) scale(0.0839)"/><use href="#c0" transform="translate(859.3,301.3) scale(0.0839)"/><use href="#c0" transform="translate(991.3,301.3) scale(0.0839)"/><use href="#c0" transform="translate(1123.3,301.3) scale(0.0839)"/><use href="#c0" transform="translate(-10.2,334.3) scale(0.0839)"/><use href="#c0" transform="translate(22.8,334.3) scale(0.0839)"/><use href="#c0" transform="translate(55.8,334.3) scale(0.0839)"/><use href="#c0" transform="translate(88.8,334.3) scale(0.0839)"/><use href="#c0" transform="translate(154.8,334.3) scale(0.0839)"/><use href="#c0" transform="translate(220.8,334.3) scale(0.0839)"/><use href="#c0" transform="translate(286.8,334.3) scale(0.0839)"/><use href="#c0" transform="translate(352.8,334.3) scale(0.0839)"/><use href="#c0" transform="translate(418.8,334.3) scale(0.0839)"/><use href="#c0" transform="translate(484.8,334.3) scale(0.0839)"/><use href="#c0" transform="translate(550.8,334.3) scale(0.0839)"/><use href="#c0" transform="translate(616.8,334.3) scale(0.0839)"/><use href="#c0" transform="translate(682.8,334.3) scale(0.0839)"/><use href="#c0" transform="translate(748.8,334.3) scale(0.0839)"/><use href="#c0" transform="translate(814.8,334.3) scale(0.0839)"/><use href="#c0" transform="translate(880.8,334.3) scale(0.0839)"/><use href="#c0" transform="translate(946.8,334.3) scale(0.0839)"/><use href="#c0" transform="translate(1012.8,334.3) scale(0.0839)"/><use href="#c0" transform="translate(1078.8,334.3) scale(0.0839)"/><use href="#c0" transform="translate(1144.8,334.3) scale(0.0839)"/><use href="#c0" transform="translate(1210.8,334.3) scale(0.0839)"/><use href="#c0" transform="translate(1276.8,334.3) scale(0.0839)"/><use href="#c0" transform="translate(1342.8,334.3) scale(0.0839)"/><use href="#c0" transform="translate(1408.8,334.3) scale(0.0839)"/><use href="#c0" transform="translate(1540.8,334.3) scale(0.0839)"/><use href="#c0" transform="translate(1606.8,334.3) scale(0.0839)"/><use href="#c0" transform="translate(1672.8,334.3) scale(0.0839)"/><use href="#c0" transform="translate(-21.7,367.3) scale(0.0839)"/><use href="#c0" transform="translate(11.3,367.3) scale(0.0839)"/><use href="#c0" transform="translate(44.3,367.3) scale(0.0839)"/><use href="#c0" transform="translate(77.3,367.3) scale(0.0839)"/><use href="#c0" transform="translate(110.3,367.3) scale(0.0839)"/><use href="#c0" transform="translate(143.3,367.3) scale(0.0839)"/><use href="#c0" transform="translate(176.3,367.3) scale(0.0839)"/><use href="#c0" transform="translate(209.3,367.3) scale(0.0839)"/><use href="#c0" transform="translate(242.3,367.3) scale(0.0839)"/><use href="#c0" transform="translate(275.3,367.3) scale(0.0839)"/><use href="#c0" transform="translate(308.3,367.3) scale(0.0839)"/><use href="#c0" transform="translate(374.3,367.3) scale(0.0839)"/><use href="#c0" transform="translate(407.3,367.3) scale(0.0839)"/><use href="#c0" transform="translate(440.3,367.3) scale(0.0839)"/><use href="#c0" transform="translate(473.3,367.3) scale(0.0839)"/><use href="#c0" transform="translate(506.3,367.3) scale(0.0839)"/><use href="#c0" transform="translate(572.3,367.3) scale(0.0839)"/><use href="#c0" transform="translate(605.3,367.3) scale(0.0839)"/><use href="#c0" transform="translate(638.3,367.3) scale(0.0839)"/><use href="#c0" transform="translate(770.3,367.3) scale(0.0839)"/><use href="#c0" transform="translate(836.3,367.3) scale(0.0839)"/><use href="#c0" transform="translate(902.3,367.3) scale(0.0839)"/><use href="#c0" transform="translate(-33.3,400.3) scale(0.0839)"/><use href="#c0" transform="translate(-0.3,400.3) scale(0.0839)"/><use href="#c0" transform="translate(32.7,400.3) scale(0.0839)"/><use href="#c0" transform="translate(65.7,400.3) scale(0.0839)"/><use href="#c0" transform="translate(98.7,400.3) scale(0.0839)"/><use href="#c0" transform="translate(164.7,400.3) scale(0.0839)"/><use href="#c0" transform="translate(197.7,400.3) scale(0.0839)"/><use href="#c0" transform="translate(230.7,400.3) scale(0.0839)"/><use href="#c0" transform="translate(296.7,400.3) scale(0.0839)"/><use href="#c0" transform="translate(362.7,400.3) scale(0.0839)"/><use href="#c0" transform="translate(428.7,400.3) scale(0.0839)"/><use href="#c0" transform="translate(494.7,400.3) scale(0.0839)"/><use href="#c0" transform="translate(560.7,400.3) scale(0.0839)"/><use href="#c0" transform="translate(626.7,400.3) scale(0.0839)"/><use href="#c0" transform="translate(692.7,400.3) scale(0.0839)"/><use href="#c0" transform="translate(758.7,400.3) scale(0.0839)"/><use href="#c0" transform="translate(824.7,400.3) scale(0.0839)"/><use href="#c0" transform="translate(890.7,400.3) scale(0.0839)"/><use href="#c0" transform="translate(956.7,400.3) scale(0.0839)"/><use href="#c0" transform="translate(1022.7,400.3) scale(0.0839)"/><use href="#c0" transform="translate(1088.7,400.3) scale(0.0839)"/><use href="#c0" transform="translate(1154.7,400.3) scale(0.0839)"/><use href="#c0" transform="translate(1220.7,400.3) scale(0.0839)"/><use href="#c0" transform="translate(1286.7,400.3) scale(0.0839)"/><use href="#c0" transform="translate(1352.7,400.3) scale(0.0839)"/><use href="#c0" transform="translate(1484.7,400.3) scale(0.0839)"/><use href="#c0" transform="translate(1616.7,400.3) scale(0.0839)"/><use href="#c0" transform="translate(1748.7,400.3) scale(0.0839)"/><use href="#c0" transform="translate(1880.7,400.3) scale(0.0839)"/><use href="#c0" transform="translate(2012.7,400.3) scale(0.0839)"/><use href="#c0" transform="translate(-11.8,433.3) scale(0.0839)"/><use href="#c0" transform="translate(21.2,433.3) scale(0.0839)"/><use href="#c0" transform="translate(54.2,433.3) scale(0.0839)"/><use href="#c0" transform="translate(87.2,433.3) scale(0.0839)"/><use href="#c0" transform="translate(120.2,433.3) scale(0.0839)"/><use href="#c0" transform="translate(153.2,433.3) scale(0.0839)"/><use href="#c0" transform="translate(186.2,433.3) scale(0.0839)"/><use href="#c0" transform="translate(219.2,433.3) scale(0.0839)"/><use href="#c0" transform="translate(252.2,433.3) scale(0.0839)"/><use href="#c0" transform="translate(318.2,433.3) scale(0.0839)"/><use href="#c0" transform="translate(351.2,433.3) scale(0.0839)"/><use href="#c0" transform="translate(384.2,433.3) scale(0.0839)"/><use href="#c0" transform="translate(417.2,433.3) scale(0.0839)"/><use href="#c0" transform="translate(450.2,433.3) scale(0.0839)"/><use href="#c0" transform="translate(516.2,433.3) scale(0.0839)"/><use href="#c0" transform="translate(549.2,433.3) scale(0.0839)"/><use href="#c0" transform="translate(582.2,433.3) scale(0.0839)"/><use href="#c0" transform="translate(648.2,433.3) scale(0.0839)"/><use href="#c0" transform="translate(681.2,433.3) scale(0.0839)"/><use href="#c0" transform="translate(714.2,433.3) scale(0.0839)"/><use href="#c0" transform="translate(780.2,433.3) scale(0.0839)"/><use href="#c0" transform="translate(846.2,433.3) scale(0.0839)"/><use href="#c0" transform="translate(978.2,433.3) scale(0.0839)"/><use href="#c0" transform="translate(1110.1,433.3) scale(0.0839)"/><use href="#c0" transform="translate(-23.4,466.3) scale(0.0839)"/><use href="#c0" transform="translate(9.6,466.3) scale(0.0839)"/><use href="#c0" transform="translate(42.6,466.3) scale(0.0839)"/><use href="#c0" transform="translate(75.6,466.3) scale(0.0839)"/><use href="#c0" transform="translate(108.6,466.3) scale(0.0839)"/><use href="#c0" transform="translate(141.6,466.3) scale(0.0839)"/><use href="#c0" transform="translate(207.6,466.3) scale(0.0839)"/><use href="#c0" transform="translate(273.6,466.3) scale(0.0839)"/><use href="#c0" transform="translate(339.6,466.3) scale(0.0839)"/><use href="#c0" transform="translate(405.6,466.3) scale(0.0839)"/><use href="#c0" transform="translate(471.6,466.3) scale(0.0839)"/><use href="#c0" transform="translate(537.6,466.3) scale(0.0839)"/><use href="#c0" transform="translate(603.6,466.3) scale(0.0839)"/><use href="#c0" transform="translate(669.6,466.3) scale(0.0839)"/><use href="#c0" transform="translate(735.6,466.3) scale(0.0839)"/><use href="#c0" transform="translate(801.6,466.3) scale(0.0839)"/><use href="#c0" transform="translate(867.6,466.3) scale(0.0839)"/><use href="#c0" transform="translate(933.6,466.3) scale(0.0839)"/><use href="#c0" transform="translate(999.6,466.3) scale(0.0839)"/><use href="#c0" transform="translate(1065.6,466.3) scale(0.0839)"/><use href="#c0" transform="translate(1131.6,466.3) scale(0.0839)"/><use href="#c0" transform="translate(1197.6,466.3) scale(0.0839)"/><use href="#c0" transform="translate(1263.6,466.3) scale(0.0839)"/><use href="#c0" transform="translate(1329.6,466.3) scale(0.0839)"/><use href="#c0" transform="translate(1395.6,466.3) scale(0.0839)"/><use href="#c0" transform="translate(1461.6,466.3) scale(0.0839)"/><use href="#c0" transform="translate(1527.6,466.3) scale(0.0839)"/><use href="#c0" transform="translate(1659.6,466.3) scale(0.0839)"/><use href="#c0" transform="translate(1791.6,466.3) scale(0.0839)"/><use href="#c0" transform="translate(-34.9,499.3) scale(0.0839)"/><use href="#c0" transform="translate(-1.9,499.3) scale(0.0839)"/><use href="#c0" transform="translate(31.1,499.3) scale(0.0839)"/><use href="#c0" transform="translate(64.1,499.3) scale(0.0839)"/><use href="#c0" transform="translate(97.1,499.3) scale(0.0839)"/><use href="#c0" transform="translate(130.1,499.3) scale(0.0839)"/><use href="#c0" transform="translate(163.1,499.3) scale(0.0839)"/><use href="#c0" transform="translate(229.1,499.3) scale(0.0839)"/><use href="#c0" transform="translate(262.1,499.3) scale(0.0839)"/><use href="#c0" transform="translate(295.1,499.3) scale(0.0839)"/><use href="#c0" transform="translate(328.1,499.3) scale(0.0839)"/><use href="#c0" transform="translate(361.1,499.3) scale(0.0839)"/><use href="#c0" transform="translate(394.1,499.3) scale(0.0839)"/><use href="#c0" transform="translate(427.1,499.3) scale(0.0839)"/><use href="#c0" transform="translate(460.1,499.3) scale(0.0839)"/><use href="#c0" transform="translate(493.1,499.3) scale(0.0839)"/><use href="#c0" transform="translate(526.1,499.3) scale(0.0839)"/><use href="#c0" transform="translate(592.1,499.3) scale(0.0839)"/><use href="#c0" transform="translate(658.1,499.3) scale(0.0839)"/><use href="#c0" transform="translate(724.1,499.3) scale(0.0839)"/><use href="#c0" transform="translate(790.1,499.3) scale(0.0839)"/><use href="#c0" transform="translate(856.1,499.3) scale(0.0839)"/><use href="#c0" transform="translate(922.1,499.3) scale(0.0839)"/><use href="#c0" transform="translate(1054.1,499.3) scale(0.0839)"/><use href="#c0" transform="translate(-13.5,532.3) scale(0.0839)"/><use href="#c0" transform="translate(19.5,532.3) scale(0.0839)"/><use href="#c0" transform="translate(52.5,532.3) scale(0.0839)"/><use href="#c0" transform="translate(85.5,532.3) scale(0.0839)"/><use href="#c0" transform="translate(151.5,532.3) scale(0.0839)"/><use href="#c0" transform="translate(184.5,532.3) scale(0.0839)"/><use href="#c0" transform="translate(217.5,532.3) scale(0.0839)"/><use href="#c0" transform="translate(283.5,532.3) scale(0.0839)"/><use href="#c0" transform="translate(316.5,532.3) scale(0.0839)"/><use href="#c0" transform="translate(349.5,532.3) scale(0.0839)"/><use href="#c0" transform="translate(415.5,532.3) scale(0.0839)"/><use href="#c0" transform="translate(481.5,532.3) scale(0.0839)"/><use href="#c0" transform="translate(547.5,532.3) scale(0.0839)"/><use href="#c0" transform="translate(613.5,532.3) scale(0.0839)"/><use href="#c0" transform="translate(679.5,532.3) scale(0.0839)"/><use href="#c0" transform="translate(745.5,532.3) scale(0.0839)"/><use href="#c0" transform="translate(811.5,532.3) scale(0.0839)"/><use href="#c0" transform="translate(877.5,532.3) scale(0.0839)"/><use href="#c0" transform="translate(943.5,532.3) scale(0.0839)"/><use href="#c0" transform="translate(1009.5,532.3) scale(0.0839)"/><use href="#c0" transform="translate(1075.5,532.3) scale(0.0839)"/><use href="#c0" transform="translate(1141.5,532.3) scale(0.0839)"/><use href="#c0" transform="translate(1207.5,532.3) scale(0.0839)"/><use href="#c0" transform="translate(1273.5,532.3) scale(0.0839)"/><use href="#c0" transform="translate(1339.5,532.3) scale(0.0839)"/><use href="#c0" transform="translate(1405.5,532.3) scale(0.0839)"/><use href="#c0" transform="translate(1471.5,532.3) scale(0.0839)"/><use href="#c0" transform="translate(1603.5,532.3) scale(0.0839)"/><use href="#c0" transform="translate(1735.5,532.3) scale(0.0839)"/><use href="#c0" transform="translate(1867.5,532.3) scale(0.0839)"/><use href="#c0" transform="translate(2131.5,532.3) scale(0.0839)"/><use href="#c0" transform="translate(-25,565.3) scale(0.0839)"/><use href="#c0" transform="translate(8,565.3) scale(0.0839)"/><use href="#c0" transform="translate(41,565.3) scale(0.0839)"/><use href="#c0" transform="translate(74,565.3) scale(0.0839)"/><use href="#c0" transform="translate(107,565.3) scale(0.0839)"/><use href="#c0" transform="translate(140,565.3) scale(0.0839)"/><use href="#c0" transform="translate(206,565.3) scale(0.0839)"/><use href="#c0" transform="translate(239,565.3) scale(0.0839)"/><use href="#c0" transform="translate(271.9,565.3) scale(0.0839)"/><use href="#c0" transform="translate(304.9,565.3) scale(0.0839)"/><use href="#c0" transform="translate(337.9,565.3) scale(0.0839)"/><use href="#c0" transform="translate(370.9,565.3) scale(0.0839)"/><use href="#c0" transform="translate(403.9,565.3) scale(0.0839)"/><use href="#c0" transform="translate(436.9,565.3) scale(0.0839)"/><use href="#c0" transform="translate(502.9,565.3) scale(0.0839)"/><use href="#c0" transform="translate(535.9,565.3) scale(0.0839)"/><use href="#c0" transform="translate(568.9,565.3) scale(0.0839)"/><use href="#c0" transform="translate(634.9,565.3) scale(0.0839)"/><use href="#c0" transform="translate(700.9,565.3) scale(0.0839)"/><use href="#c0" transform="translate(832.9,565.3) scale(0.0839)"/><use href="#c0" transform="translate(964.9,565.3) scale(0.0839)"/><use href="#c0" transform="translate(1097,565.3) scale(0.0839)"/><use href="#c0" transform="translate(-36.6,598.3) scale(0.0839)"/><use href="#c0" transform="translate(-3.6,598.3) scale(0.0839)"/><use href="#c0" transform="translate(29.4,598.3) scale(0.0839)"/><use href="#c0" transform="translate(62.4,598.3) scale(0.0839)"/><use href="#c0" transform="translate(95.4,598.3) scale(0.0839)"/><use href="#c0" transform="translate(128.4,598.3) scale(0.0839)"/><use href="#c0" transform="translate(161.4,598.3) scale(0.0839)"/><use href="#c0" transform="translate(227.4,598.3) scale(0.0839)"/><use href="#c0" transform="translate(293.4,598.3) scale(0.0839)"/><use href="#c0" transform="translate(359.4,598.3) scale(0.0839)"/><use href="#c0" transform="translate(425.4,598.3) scale(0.0839)"/><use href="#c0" transform="translate(491.4,598.3) scale(0.0839)"/><use href="#c0" transform="translate(557.4,598.3) scale(0.0839)"/><use href="#c0" transform="translate(623.4,598.3) scale(0.0839)"/><use href="#c0" transform="translate(689.4,598.3) scale(0.0839)"/><use href="#c0" transform="translate(755.4,598.3) scale(0.0839)"/><use href="#c0" transform="translate(821.4,598.3) scale(0.0839)"/><use href="#c0" transform="translate(887.4,598.3) scale(0.0839)"/><use href="#c0" transform="translate(953.4,598.3) scale(0.0839)"/><use href="#c0" transform="translate(1019.4,598.3) scale(0.0839)"/><use href="#c0" transform="translate(1085.4,598.3) scale(0.0839)"/><use href="#c0" transform="translate(1151.4,598.3) scale(0.0839)"/><use href="#c0" transform="translate(1217.4,598.3) scale(0.0839)"/><use href="#c0" transform="translate(1283.4,598.3) scale(0.0839)"/><use href="#c0" transform="translate(1349.4,598.3) scale(0.0839)"/><use href="#c0" transform="translate(1415.4,598.3) scale(0.0839)"/><use href="#c0" transform="translate(1547.4,598.3) scale(0.0839)"/><use href="#c0" transform="translate(1613.4,598.3) scale(0.0839)"/><use href="#c0" transform="translate(1679.4,598.3) scale(0.0839)"/><use href="#c0" transform="translate(-15.1,631.3) scale(0.0839)"/><use href="#c0" transform="translate(17.9,631.3) scale(0.0839)"/><use href="#c0" transform="translate(50.9,631.3) scale(0.0839)"/><use href="#c0" transform="translate(83.9,631.3) scale(0.0839)"/><use href="#c0" transform="translate(116.9,631.3) scale(0.0839)"/><use href="#c0" transform="translate(149.9,631.3) scale(0.0839)"/><use href="#c0" transform="translate(182.9,631.3) scale(0.0839)"/><use href="#c0" transform="translate(215.9,631.3) scale(0.0839)"/><use href="#c0" transform="translate(248.9,631.3) scale(0.0839)"/><use href="#c0" transform="translate(281.9,631.3) scale(0.0839)"/><use href="#c0" transform="translate(314.9,631.3) scale(0.0839)"/><use href="#c0" transform="translate(347.9,631.3) scale(0.0839)"/><use href="#c0" transform="translate(380.9,631.3) scale(0.0839)"/><use href="#c0" transform="translate(413.9,631.3) scale(0.0839)"/><use href="#c0" transform="translate(446.9,631.3) scale(0.0839)"/><use href="#c0" transform="translate(479.9,631.3) scale(0.0839)"/><use href="#c0" transform="translate(512.8,631.3) scale(0.0839)"/><use href="#c0" transform="translate(578.8,631.3) scale(0.0839)"/><use href="#c0" transform="translate(611.8,631.3) scale(0.0839)"/><use href="#c0" transform="translate(644.8,631.3) scale(0.0839)"/><use href="#c0" transform="translate(710.8,631.3) scale(0.0839)"/><use href="#c0" transform="translate(776.8,631.3) scale(0.0839)"/><use href="#c0" transform="translate(842.8,631.3) scale(0.0839)"/><use href="#c0" transform="translate(908.8,631.3) scale(0.0839)"/><use href="#c0" transform="translate(-26.7,664.3) scale(0.0839)"/><use href="#c0" transform="translate(6.3,664.3) scale(0.0839)"/><use href="#c0" transform="translate(39.3,664.3) scale(0.0839)"/><use href="#c0" transform="translate(72.3,664.3) scale(0.0839)"/><use href="#c0" transform="translate(138.3,664.3) scale(0.0839)"/><use href="#c0" transform="translate(171.3,664.3) scale(0.0839)"/><use href="#c0" transform="translate(204.3,664.3) scale(0.0839)"/><use href="#c0" transform="translate(270.3,664.3) scale(0.0839)"/><use href="#c0" transform="translate(336.3,664.3) scale(0.0839)"/><use href="#c0" transform="translate(402.3,664.3) scale(0.0839)"/><use href="#c0" transform="translate(468.3,664.3) scale(0.0839)"/><use href="#c0" transform="translate(534.3,664.3) scale(0.0839)"/><use href="#c0" transform="translate(600.3,664.3) scale(0.0839)"/><use href="#c0" transform="translate(666.3,664.3) scale(0.0839)"/><use href="#c0" transform="translate(732.3,664.3) scale(0.0839)"/><use href="#c0" transform="translate(798.3,664.3) scale(0.0839)"/><use href="#c0" transform="translate(864.3,664.3) scale(0.0839)"/><use href="#c0" transform="translate(930.3,664.3) scale(0.0839)"/><use href="#c0" transform="translate(996.3,664.3) scale(0.0839)"/><use href="#c0" transform="translate(1062.3,664.3) scale(0.0839)"/><use href="#c0" transform="translate(1128.3,664.3) scale(0.0839)"/><use href="#c0" transform="translate(1194.3,664.3) scale(0.0839)"/><use href="#c0" transform="translate(1260.3,664.3) scale(0.0839)"/><use href="#c0" transform="translate(1326.3,664.3) scale(0.0839)"/><use href="#c0" transform="translate(1458.3,664.3) scale(0.0839)"/><use href="#c0" transform="translate(1590.3,664.3) scale(0.0839)"/><use href="#c0" transform="translate(1722.3,664.3) scale(0.0839)"/><use href="#c0" transform="translate(1854.3,664.3) scale(0.0839)"/><use href="#c0" transform="translate(1986.3,664.3) scale(0.0839)"/><use href="#c0" transform="translate(-38.2,697.3) scale(0.0839)"/><use href="#c0" transform="translate(-5.2,697.3) scale(0.0839)"/><use href="#c0" transform="translate(27.8,697.3) scale(0.0839)"/><use href="#c0" transform="translate(60.8,697.3) scale(0.0839)"/><use href="#c0" transform="translate(93.8,697.3) scale(0.0839)"/><use href="#c0" transform="translate(126.8,697.3) scale(0.0839)"/><use href="#c0" transform="translate(159.8,697.3) scale(0.0839)"/><use href="#c0" transform="translate(192.8,697.3) scale(0.0839)"/><use href="#c0" transform="translate(225.8,697.3) scale(0.0839)"/><use href="#c0" transform="translate(258.8,697.3) scale(0.0839)"/><use href="#c0" transform="translate(291.8,697.3) scale(0.0839)"/><use href="#c0" transform="translate(324.8,697.3) scale(0.0839)"/><use href="#c0" transform="translate(390.8,697.3) scale(0.0839)"/><use href="#c0" transform="translate(423.8,697.3) scale(0.0839)"/><use href="#c0" transform="translate(456.8,697.3) scale(0.0839)"/><use href="#c0" transform="translate(522.8,697.3) scale(0.0839)"/><use href="#c0" transform="translate(555.8,697.3) scale(0.0839)"/><use href="#c0" transform="translate(588.8,697.3) scale(0.0839)"/><use href="#c0" transform="translate(654.8,697.3) scale(0.0839)"/><use href="#c0" transform="translate(687.8,697.3) scale(0.0839)"/><use href="#c0" transform="translate(720.8,697.3) scale(0.0839)"/><use href="#c0" transform="translate(786.8,697.3) scale(0.0839)"/><use href="#c0" transform="translate(852.8,697.3) scale(0.0839)"/><use href="#c0" transform="translate(984.8,697.3) scale(0.0839)"/><use href="#c0" transform="translate(1116.8,697.3) scale(0.0839)"/><use href="#c0" transform="translate(-16.8,730.3) scale(0.0839)"/><use href="#c0" transform="translate(16.2,730.3) scale(0.0839)"/><use href="#c0" transform="translate(49.2,730.3) scale(0.0839)"/><use href="#c0" transform="translate(82.2,730.3) scale(0.0839)"/><use href="#c0" transform="translate(115.2,730.3) scale(0.0839)"/><use href="#c0" transform="translate(148.2,730.3) scale(0.0839)"/><use href="#c0" transform="translate(214.2,730.3) scale(0.0839)"/><use href="#c0" transform="translate(280.2,730.3) scale(0.0839)"/><use href="#c0" transform="translate(346.2,730.3) scale(0.0839)"/><use href="#c0" transform="translate(412.2,730.3) scale(0.0839)"/><use href="#c0" transform="translate(544.2,730.3) scale(0.0839)"/><use href="#c0" transform="translate(610.2,730.3) scale(0.0839)"/><use href="#c0" transform="translate(676.2,730.3) scale(0.0839)"/><use href="#c0" transform="translate(742.2,730.3) scale(0.0839)"/><use href="#c0" transform="translate(808.2,730.3) scale(0.0839)"/><use href="#c0" transform="translate(874.2,730.3) scale(0.0839)"/><use href="#c0" transform="translate(940.2,730.3) scale(0.0839)"/><use href="#c0" transform="translate(1006.2,730.3) scale(0.0839)"/><use href="#c0" transform="translate(1072.2,730.3) scale(0.0839)"/><use href="#c0" transform="translate(1138.2,730.3) scale(0.0839)"/><use href="#c0" transform="translate(1204.2,730.3) scale(0.0839)"/><use href="#c0" transform="translate(1270.2,730.3) scale(0.0839)"/><use href="#c0" transform="translate(1336.2,730.3) scale(0.0839)"/><use href="#c0" transform="translate(1402.2,730.3) scale(0.0839)"/><use href="#c0" transform="translate(1468.2,730.3) scale(0.0839)"/><use href="#c0" transform="translate(1534.2,730.3) scale(0.0839)"/><use href="#c0" transform="translate(1666.2,730.3) scale(0.0839)"/><use href="#c0" transform="translate(1798.2,730.3) scale(0.0839)"/><use href="#c0" transform="translate(-28.3,763.3) scale(0.0839)"/><use href="#c0" transform="translate(4.7,763.3) scale(0.0839)"/><use href="#c0" transform="translate(37.7,763.3) scale(0.0839)"/><use href="#c0" transform="translate(70.7,763.3) scale(0.0839)"/><use href="#c0" transform="translate(103.7,763.3) scale(0.0839)"/><use href="#c0" transform="translate(136.7,763.3) scale(0.0839)"/><use href="#c0" transform="translate(169.7,763.3) scale(0.0839)"/><use href="#c0" transform="translate(202.7,763.3) scale(0.0839)"/><use href="#c0" transform="translate(235.7,763.3) scale(0.0839)"/><use href="#c0" transform="translate(268.7,763.3) scale(0.0839)"/><use href="#c0" transform="translate(301.7,763.3) scale(0.0839)"/><use href="#c0" transform="translate(334.7,763.3) scale(0.0839)"/><use href="#c0" transform="translate(367.7,763.3) scale(0.0839)"/><use href="#c0" transform="translate(400.7,763.3) scale(0.0839)"/><use href="#c0" transform="translate(433.7,763.3) scale(0.0839)"/><use href="#c0" transform="translate(466.7,763.3) scale(0.0839)"/><use href="#c0" transform="translate(499.7,763.3) scale(0.0839)"/><use href="#c0" transform="translate(532.7,763.3) scale(0.0839)"/><use href="#c0" transform="translate(598.7,763.3) scale(0.0839)"/><use href="#c0" transform="translate(664.7,763.3) scale(0.0839)"/><use href="#c0" transform="translate(730.7,763.3) scale(0.0839)"/><use href="#c0" transform="translate(796.7,763.3) scale(0.0839)"/><use href="#c0" transform="translate(862.7,763.3) scale(0.0839)"/><use href="#c0" transform="translate(928.7,763.3) scale(0.0839)"/><use href="#c0" transform="translate(1060.6,763.3) scale(0.0839)"/><use href="#c0" transform="translate(-39.9,796.3) scale(0.0839)"/><use href="#c0" transform="translate(-6.9,796.3) scale(0.0839)"/><use href="#c0" transform="translate(26.1,796.3) scale(0.0839)"/><use href="#c0" transform="translate(59.1,796.3) scale(0.0839)"/><use href="#c0" transform="translate(92.1,796.3) scale(0.0839)"/><use href="#c0" transform="translate(158.1,796.3) scale(0.0839)"/><use href="#c0" transform="translate(191.1,796.3) scale(0.0839)"/><use href="#c0" transform="translate(224.1,796.3) scale(0.0839)"/><use href="#c0" transform="translate(290.1,796.3) scale(0.0839)"/><use href="#c0" transform="translate(356.1,796.3) scale(0.0839)"/><use href="#c0" transform="translate(422.1,796.3) scale(0.0839)"/><use href="#c0" transform="translate(488.1,796.3) scale(0.0839)"/><use href="#c0" transform="translate(554.1,796.3) scale(0.0839)"/><use href="#c0" transform="translate(620.1,796.3) scale(0.0839)"/><use href="#c0" transform="translate(686.1,796.3) scale(0.0839)"/><use href="#c0" transform="translate(752.1,796.3) scale(0.0839)"/><use href="#c0" transform="translate(818.1,796.3) scale(0.0839)"/><use href="#c0" transform="translate(884.1,796.3) scale(0.0839)"/><use href="#c0" transform="translate(950.1,796.3) scale(0.0839)"/><use href="#c0" transform="translate(1016.1,796.3) scale(0.0839)"/><use href="#c0" transform="translate(1082.1,796.3) scale(0.0839)"/><use href="#c0" transform="translate(1148.1,796.3) scale(0.0839)"/><use href="#c0" transform="translate(1214.1,796.3) scale(0.0839)"/><use href="#c0" transform="translate(1280.1,796.3) scale(0.0839)"/><use href="#c0" transform="translate(1346.1,796.3) scale(0.0839)"/><use href="#c0" transform="translate(1412.1,796.3) scale(0.0839)"/><use href="#c0" transform="translate(1478.1,796.3) scale(0.0839)"/><use href="#c0" transform="translate(1610.1,796.3) scale(0.0839)"/><use href="#c0" transform="translate(1742.1,796.3) scale(0.0839)"/><use href="#c0" transform="translate(1874.1,796.3) scale(0.0839)"/><use href="#c0" transform="translate(2138.1,796.3) scale(0.0839)"/><use href="#c0" transform="translate(-18.5,829.3) scale(0.0839)"/><use href="#c0" transform="translate(14.6,829.3) scale(0.0839)"/><use href="#c0" transform="translate(80.6,829.3) scale(0.0839)"/><use href="#c0" transform="translate(113.6,829.3) scale(0.0839)"/><use href="#c0" transform="translate(146.6,829.3) scale(0.0839)"/><use href="#c0" transform="translate(179.6,829.3) scale(0.0839)"/><use href="#c0" transform="translate(212.6,829.3) scale(0.0839)"/><use href="#c0" transform="translate(245.6,829.3) scale(0.0839)"/><use href="#c0" transform="translate(278.6,829.3) scale(0.0839)"/><use href="#c0" transform="translate(311.6,829.3) scale(0.0839)"/><use href="#c0" transform="translate(344.6,829.3) scale(0.0839)"/><use href="#c0" transform="translate(377.6,829.3) scale(0.0839)"/><use href="#c0" transform="translate(410.6,829.3) scale(0.0839)"/><use href="#c0" transform="translate(443.6,829.3) scale(0.0839)"/><use href="#c0" transform="translate(509.6,829.3) scale(0.0839)"/><use href="#c0" transform="translate(542.6,829.3) scale(0.0839)"/><use href="#c0" transform="translate(575.6,829.3) scale(0.0839)"/><use href="#c0" transform="translate(641.6,829.3) scale(0.0839)"/><use href="#c0" transform="translate(707.6,829.3) scale(0.0839)"/><use href="#c0" transform="translate(839.6,829.3) scale(0.0839)"/><use href="#c0" transform="translate(971.6,829.3) scale(0.0839)"/><use href="#c0" transform="translate(1103.6,829.3) scale(0.0839)"/><use href="#c0" transform="translate(-30,862.3) scale(0.0839)"/><use href="#c0" transform="translate(36,862.3) scale(0.0839)"/><use href="#c0" transform="translate(69,862.3) scale(0.0839)"/><use href="#c0" transform="translate(102,862.3) scale(0.0839)"/><use href="#c0" transform="translate(135,862.3) scale(0.0839)"/><use href="#c0" transform="translate(168,862.3) scale(0.0839)"/><use href="#c0" transform="translate(234,862.3) scale(0.0839)"/><use href="#c0" transform="translate(300,862.3) scale(0.0839)"/><use href="#c0" transform="translate(366,862.3) scale(0.0839)"/><use href="#c0" transform="translate(432,862.3) scale(0.0839)"/><use href="#c0" transform="translate(498,862.3) scale(0.0839)"/><use href="#c0" transform="translate(564,862.3) scale(0.0839)"/><use href="#c0" transform="translate(630,862.3) scale(0.0839)"/><use href="#c0" transform="translate(696,862.3) scale(0.0839)"/><use href="#c0" transform="translate(762,862.3) scale(0.0839)"/><use href="#c0" transform="translate(828,862.3) scale(0.0839)"/><use href="#c0" transform="translate(894,862.3) scale(0.0839)"/><use href="#c0" transform="translate(960,862.3) scale(0.0839)"/><use href="#c0" transform="translate(1026,862.3) scale(0.0839)"/><use href="#c0" transform="translate(1092,862.3) scale(0.0839)"/><use href="#c0" transform="translate(1158,862.3) scale(0.0839)"/><use href="#c0" transform="translate(1224,862.3) scale(0.0839)"/><use href="#c0" transform="translate(1290,862.3) scale(0.0839)"/><use href="#c0" transform="translate(1356,862.3) scale(0.0839)"/><use href="#c0" transform="translate(1422,862.3) scale(0.0839)"/><use href="#c0" transform="translate(1554,862.3) scale(0.0839)"/><use href="#c0" transform="translate(1686,862.3) scale(0.0839)"/><use href="#c0" transform="translate(-41.5,895.3) scale(0.0839)"/><use href="#c0" transform="translate(-8.5,895.3) scale(0.0839)"/><use href="#c0" transform="translate(24.5,895.3) scale(0.0839)"/><use href="#c0" transform="translate(57.5,895.3) scale(0.0839)"/><use href="#c0" transform="translate(90.5,895.3) scale(0.0839)"/><use href="#c0" transform="translate(123.5,895.3) scale(0.0839)"/><use href="#c0" transform="translate(156.5,895.3) scale(0.0839)"/><use href="#c0" transform="translate(189.5,895.3) scale(0.0839)"/><use href="#c0" transform="translate(222.5,895.3) scale(0.0839)"/><use href="#c0" transform="translate(255.5,895.3) scale(0.0839)"/><use href="#c0" transform="translate(288.5,895.3) scale(0.0839)"/><use href="#c0" transform="translate(321.5,895.3) scale(0.0839)"/><use href="#c0" transform="translate(354.5,895.3) scale(0.0839)"/><use href="#c0" transform="translate(387.5,895.3) scale(0.0839)"/><use href="#c0" transform="translate(420.5,895.3) scale(0.0839)"/><use href="#c0" transform="translate(453.5,895.3) scale(0.0839)"/><use href="#c0" transform="translate(486.5,895.3) scale(0.0839)"/><use href="#c0" transform="translate(519.5,895.3) scale(0.0839)"/><use href="#c0" transform="translate(585.5,895.3) scale(0.0839)"/><use href="#c0" transform="translate(651.5,895.3) scale(0.0839)"/><use href="#c0" transform="translate(717.5,895.3) scale(0.0839)"/><use href="#c0" transform="translate(783.5,895.3) scale(0.0839)"/><use href="#c0" transform="translate(849.5,895.3) scale(0.0839)"/><use href="#c0" transform="translate(915.5,895.3) scale(0.0839)"/><use href="#c0" transform="translate(-20.1,928.3) scale(0.0839)"/><use href="#c0" transform="translate(12.9,928.3) scale(0.0839)"/><use href="#c0" transform="translate(45.9,928.3) scale(0.0839)"/><use href="#c0" transform="translate(78.9,928.3) scale(0.0839)"/><use href="#c0" transform="translate(144.9,928.3) scale(0.0839)"/><use href="#c0" transform="translate(177.9,928.3) scale(0.0839)"/><use href="#c0" transform="translate(210.9,928.3) scale(0.0839)"/><use href="#c0" transform="translate(276.9,928.3) scale(0.0839)"/><use href="#c0" transform="translate(408.9,928.3) scale(0.0839)"/><use href="#c0" transform="translate(474.9,928.3) scale(0.0839)"/><use href="#c0" transform="translate(540.9,928.3) scale(0.0839)"/><use href="#c0" transform="translate(606.9,928.3) scale(0.0839)"/><use href="#c0" transform="translate(672.9,928.3) scale(0.0839)"/><use href="#c0" transform="translate(738.9,928.3) scale(0.0839)"/><use href="#c0" transform="translate(804.9,928.3) scale(0.0839)"/><use href="#c0" transform="translate(870.9,928.3) scale(0.0839)"/><use href="#c0" transform="translate(936.9,928.3) scale(0.0839)"/><use href="#c0" transform="translate(1002.9,928.3) scale(0.0839)"/><use href="#c0" transform="translate(1068.9,928.3) scale(0.0839)"/><use href="#c0" transform="translate(1134.9,928.3) scale(0.0839)"/><use href="#c0" transform="translate(1200.9,928.3) scale(0.0839)"/><use href="#c0" transform="translate(1266.9,928.3) scale(0.0839)"/><use href="#c0" transform="translate(1332.9,928.3) scale(0.0839)"/><use href="#c0" transform="translate(1464.9,928.3) scale(0.0839)"/><use href="#c0" transform="translate(1596.9,928.3) scale(0.0839)"/><use href="#c0" transform="translate(1728.9,928.3) scale(0.0839)"/><use href="#c0" transform="translate(1860.9,928.3) scale(0.0839)"/><use href="#c0" transform="translate(1992.9,928.3) scale(0.0839)"/><use href="#c0" transform="translate(-31.6,961.3) scale(0.0839)"/><use href="#c0" transform="translate(1.4,961.3) scale(0.0839)"/><use href="#c0" transform="translate(34.4,961.3) scale(0.0839)"/><use href="#c0" transform="translate(67.4,961.3) scale(0.0839)"/><use href="#c0" transform="translate(100.4,961.3) scale(0.0839)"/><use href="#c0" transform="translate(133.4,961.3) scale(0.0839)"/><use href="#c0" transform="translate(166.4,961.3) scale(0.0839)"/><use href="#c0" transform="translate(199.4,961.3) scale(0.0839)"/><use href="#c0" transform="translate(232.4,961.3) scale(0.0839)"/><use href="#c0" transform="translate(265.4,961.3) scale(0.0839)"/><use href="#c0" transform="translate(298.4,961.3) scale(0.0839)"/><use href="#c0" transform="translate(331.4,961.3) scale(0.0839)"/><use href="#c0" transform="translate(364.4,961.3) scale(0.0839)"/><use href="#c0" transform="translate(397.4,961.3) scale(0.0839)"/><use href="#c0" transform="translate(430.4,961.3) scale(0.0839)"/><use href="#c0" transform="translate(463.4,961.3) scale(0.0839)"/><use href="#c0" transform="translate(529.3,961.3) scale(0.0839)"/><use href="#c0" transform="translate(562.3,961.3) scale(0.0839)"/><use href="#c0" transform="translate(595.3,961.3) scale(0.0839)"/><use href="#c0" transform="translate(661.3,961.3) scale(0.0839)"/><use href="#c0" transform="translate(694.3,961.3) scale(0.0839)"/><use href="#c0" transform="translate(727.3,961.3) scale(0.0839)"/><use href="#c0" transform="translate(793.3,961.3) scale(0.0839)"/><use href="#c0" transform="translate(859.3,961.3) scale(0.0839)"/><use href="#c0" transform="translate(991.3,961.3) scale(0.0839)"/><use href="#c0" transform="translate(1123.3,961.3) scale(0.0839)"/><use href="#c0" transform="translate(-43.2,994.3) scale(0.0839)"/><use href="#c0" transform="translate(-10.2,994.3) scale(0.0839)"/><use href="#c0" transform="translate(22.8,994.3) scale(0.0839)"/><use href="#c0" transform="translate(55.8,994.3) scale(0.0839)"/><use href="#c0" transform="translate(121.8,994.3) scale(0.0839)"/><use href="#c0" transform="translate(154.8,994.3) scale(0.0839)"/><use href="#c0" transform="translate(220.8,994.3) scale(0.0839)"/><use href="#c0" transform="translate(286.8,994.3) scale(0.0839)"/><use href="#c0" transform="translate(352.8,994.3) scale(0.0839)"/><use href="#c0" transform="translate(418.8,994.3) scale(0.0839)"/><use href="#c0" transform="translate(484.8,994.3) scale(0.0839)"/><use href="#c0" transform="translate(550.8,994.3) scale(0.0839)"/><use href="#c0" transform="translate(616.8,994.3) scale(0.0839)"/><use href="#c0" transform="translate(682.8,994.3) scale(0.0839)"/><use href="#c0" transform="translate(748.8,994.3) scale(0.0839)"/><use href="#c0" transform="translate(814.8,994.3) scale(0.0839)"/><use href="#c0" transform="translate(880.8,994.3) scale(0.0839)"/><use href="#c0" transform="translate(946.8,994.3) scale(0.0839)"/><use href="#c0" transform="translate(1012.8,994.3) scale(0.0839)"/><use href="#c0" transform="translate(1078.8,994.3) scale(0.0839)"/><use href="#c0" transform="translate(1144.8,994.3) scale(0.0839)"/><use href="#c0" transform="translate(1210.8,994.3) scale(0.0839)"/><use href="#c0" transform="translate(1276.8,994.3) scale(0.0839)"/><use href="#c0" transform="translate(1342.8,994.3) scale(0.0839)"/><use href="#c0" transform="translate(1408.8,994.3) scale(0.0839)"/><use href="#c0" transform="translate(1474.8,994.3) scale(0.0839)"/><use href="#c0" transform="translate(1540.8,994.3) scale(0.0839)"/><use href="#c0" transform="translate(1672.8,994.3) scale(0.0839)"/><use href="#c0" transform="translate(-21.7,1027.3) scale(0.0839)"/><use href="#c0" transform="translate(11.3,1027.3) scale(0.0839)"/><use href="#c0" transform="translate(44.3,1027.3) scale(0.0839)"/><use href="#c0" transform="translate(110.3,1027.3) scale(0.0839)"/><use href="#c0" transform="translate(143.3,1027.3) scale(0.0839)"/><use href="#c0" transform="translate(176.3,1027.3) scale(0.0839)"/><use href="#c0" transform="translate(209.3,1027.3) scale(0.0839)"/><use href="#c0" transform="translate(242.3,1027.3) scale(0.0839)"/><use href="#c0" transform="translate(275.3,1027.3) scale(0.0839)"/><use href="#c0" transform="translate(308.3,1027.3) scale(0.0839)"/><use href="#c0" transform="translate(341.3,1027.3) scale(0.0839)"/><use href="#c0" transform="translate(374.3,1027.3) scale(0.0839)"/><use href="#c0" transform="translate(407.3,1027.3) scale(0.0839)"/><use href="#c0" transform="translate(440.3,1027.3) scale(0.0839)"/><use href="#c0" transform="translate(473.3,1027.3) scale(0.0839)"/><use href="#c0" transform="translate(506.3,1027.3) scale(0.0839)"/><use href="#c0" transform="translate(572.3,1027.3) scale(0.0839)"/><use href="#c0" transform="translate(638.3,1027.3) scale(0.0839)"/><use href="#c0" transform="translate(770.3,1027.3) scale(0.0839)"/><use href="#c0" transform="translate(836.3,1027.3) scale(0.0839)"/><use href="#c0" transform="translate(902.3,1027.3) scale(0.0839)"/><use href="#c0" transform="translate(1034.3,1027.3) scale(0.0839)"/><use href="#c0" transform="translate(-33.3,1060.3) scale(0.0839)"/><use href="#c0" transform="translate(-0.3,1060.3) scale(0.0839)"/><use href="#c0" transform="translate(65.7,1060.3) scale(0.0839)"/><use href="#c0" transform="translate(98.7,1060.3) scale(0.0839)"/><use href="#c0" transform="translate(164.7,1060.3) scale(0.0839)"/><use href="#c0" transform="translate(197.7,1060.3) scale(0.0839)"/><use href="#c0" transform="translate(230.7,1060.3) scale(0.0839)"/><use href="#c0" transform="translate(296.7,1060.3) scale(0.0839)"/><use href="#c0" transform="translate(362.7,1060.3) scale(0.0839)"/><use href="#c0" transform="translate(428.7,1060.3) scale(0.0839)"/><use href="#c0" transform="translate(494.7,1060.3) scale(0.0839)"/><use href="#c0" transform="translate(560.7,1060.3) scale(0.0839)"/><use href="#c0" transform="translate(626.7,1060.3) scale(0.0839)"/><use href="#c0" transform="translate(692.7,1060.3) scale(0.0839)"/><use href="#c0" transform="translate(758.7,1060.3) scale(0.0839)"/><use href="#c0" transform="translate(824.7,1060.3) scale(0.0839)"/><use href="#c0" transform="translate(890.7,1060.3) scale(0.0839)"/><use href="#c0" transform="translate(956.7,1060.3) scale(0.0839)"/><use href="#c0" transform="translate(1022.7,1060.3) scale(0.0839)"/><use href="#c0" transform="translate(1088.7,1060.3) scale(0.0839)"/><use href="#c0" transform="translate(1154.7,1060.3) scale(0.0839)"/><use href="#c0" transform="translate(1220.7,1060.3) scale(0.0839)"/><use href="#c0" transform="translate(1286.7,1060.3) scale(0.0839)"/><use href="#c0" transform="translate(1352.7,1060.3) scale(0.0839)"/><use href="#c0" transform="translate(1484.7,1060.3) scale(0.0839)"/><use href="#c0" transform="translate(1616.7,1060.3) scale(0.0839)"/><use href="#c0" transform="translate(1748.7,1060.3) scale(0.0839)"/><use href="#c0" transform="translate(1880.7,1060.3) scale(0.0839)"/><use href="#c0" transform="translate(2144.7,1060.3) scale(0.0839)"/><use href="#c0" transform="translate(-11.8,1093.3) scale(0.0839)"/><use href="#c0" transform="translate(21.2,1093.3) scale(0.0839)"/><use href="#c0" transform="translate(54.2,1093.3) scale(0.0839)"/><use href="#c0" transform="translate(87.2,1093.3) scale(0.0839)"/><use href="#c0" transform="translate(120.2,1093.3) scale(0.0839)"/><use href="#c0" transform="translate(153.2,1093.3) scale(0.0839)"/><use href="#c0" transform="translate(186.2,1093.3) scale(0.0839)"/><use href="#c0" transform="translate(219.2,1093.3) scale(0.0839)"/><use href="#c0" transform="translate(252.2,1093.3) scale(0.0839)"/><use href="#c0" transform="translate(285.2,1093.3) scale(0.0839)"/><use href="#c0" transform="translate(318.2,1093.3) scale(0.0839)"/><use href="#c0" transform="translate(351.2,1093.3) scale(0.0839)"/><use href="#c0" transform="translate(384.2,1093.3) scale(0.0839)"/><use href="#c0" transform="translate(417.2,1093.3) scale(0.0839)"/><use href="#c0" transform="translate(450.2,1093.3) scale(0.0839)"/><use href="#c0" transform="translate(516.2,1093.3) scale(0.0839)"/><use href="#c0" transform="translate(549.2,1093.3) scale(0.0839)"/><use href="#c0" transform="translate(582.2,1093.3) scale(0.0839)"/><use href="#c0" transform="translate(648.2,1093.3) scale(0.0839)"/><use href="#c0" transform="translate(714.2,1093.3) scale(0.0839)"/><use href="#c0" transform="translate(846.2,1093.3) scale(0.0839)"/><use href="#c0" transform="translate(978.2,1093.3) scale(0.0839)"/><use href="#c0" transform="translate(1110.1,1093.3) scale(0.0839)"/><use href="#c0" transform="translate(-23.4,1126.3) scale(0.0839)"/><use href="#c0" transform="translate(9.6,1126.3) scale(0.0839)"/><use href="#c0" transform="translate(42.6,1126.3) scale(0.0839)"/><use href="#c0" transform="translate(75.6,1126.3) scale(0.0839)"/><use href="#c0" transform="translate(108.6,1126.3) scale(0.0839)"/><use href="#c0" transform="translate(141.6,1126.3) scale(0.0839)"/><use href="#c0" transform="translate(207.6,1126.3) scale(0.0839)"/><use href="#c0" transform="translate(273.6,1126.3) scale(0.0839)"/><use href="#c0" transform="translate(339.6,1126.3) scale(0.0839)"/><use href="#c0" transform="translate(405.6,1126.3) scale(0.0839)"/><use href="#c0" transform="translate(471.6,1126.3) scale(0.0839)"/><use href="#c0" transform="translate(537.6,1126.3) scale(0.0839)"/><use href="#c0" transform="translate(603.6,1126.3) scale(0.0839)"/><use href="#c0" transform="translate(669.6,1126.3) scale(0.0839)"/><use href="#c0" transform="translate(735.6,1126.3) scale(0.0839)"/><use href="#c0" transform="translate(801.6,1126.3) scale(0.0839)"/><use href="#c0" transform="translate(867.6,1126.3) scale(0.0839)"/><use href="#c0" transform="translate(933.6,1126.3) scale(0.0839)"/><use href="#c0" transform="translate(999.6,1126.3) scale(0.0839)"/><use href="#c0" transform="translate(1065.6,1126.3) scale(0.0839)"/><use href="#c0" transform="translate(1131.6,1126.3) scale(0.0839)"/><use href="#c0" transform="translate(1197.6,1126.3) scale(0.0839)"/><use href="#c0" transform="translate(1263.6,1126.3) scale(0.0839)"/><use href="#c0" transform="translate(1329.6,1126.3) scale(0.0839)"/><use href="#c0" transform="translate(1395.6,1126.3) scale(0.0839)"/><use href="#c0" transform="translate(1461.6,1126.3) scale(0.0839)"/><use href="#c0" transform="translate(1527.6,1126.3) scale(0.0839)"/><use href="#c0" transform="translate(1593.6,1126.3) scale(0.0839)"/><use href="#c0" transform="translate(1659.6,1126.3) scale(0.0839)"/><use href="#c0" transform="translate(-34.9,1159.3) scale(0.0839)"/><use href="#c0" transform="translate(-1.9,1159.3) scale(0.0839)"/><use href="#c0" transform="translate(31.1,1159.3) scale(0.0839)"/><use href="#c0" transform="translate(64.1,1159.3) scale(0.0839)"/><use href="#c0" transform="translate(97.1,1159.3) scale(0.0839)"/><use href="#c0" transform="translate(130.1,1159.3) scale(0.0839)"/><use href="#c0" transform="translate(163.1,1159.3) scale(0.0839)"/><use href="#c0" transform="translate(196.1,1159.3) scale(0.0839)"/><use href="#c0" transform="translate(229.1,1159.3) scale(0.0839)"/><use href="#c0" transform="translate(262.1,1159.3) scale(0.0839)"/><use href="#c0" transform="translate(295.1,1159.3) scale(0.0839)"/><use href="#c0" transform="translate(328.1,1159.3) scale(0.0839)"/><use href="#c0" transform="translate(361.1,1159.3) scale(0.0839)"/><use href="#c0" transform="translate(394.1,1159.3) scale(0.0839)"/><use href="#c0" transform="translate(427.1,1159.3) scale(0.0839)"/><use href="#c0" transform="translate(460.1,1159.3) scale(0.0839)"/><use href="#c0" transform="translate(493.1,1159.3) scale(0.0839)"/><use href="#c0" transform="translate(526.1,1159.3) scale(0.0839)"/><use href="#c0" transform="translate(592.1,1159.3) scale(0.0839)"/><use href="#c0" transform="translate(658.1,1159.3) scale(0.0839)"/><use href="#c0" transform="translate(724.1,1159.3) scale(0.0839)"/><use href="#c0" transform="translate(856.1,1159.3) scale(0.0839)"/><use href="#c0" transform="translate(922.1,1159.3) scale(0.0839)"/><use href="#c0" transform="translate(-13.5,1192.3) scale(0.0839)"/><use href="#c0" transform="translate(19.5,1192.3) scale(0.0839)"/><use href="#c0" transform="translate(52.5,1192.3) scale(0.0839)"/><use href="#c0" transform="translate(85.5,1192.3) scale(0.0839)"/><use href="#c0" transform="translate(151.5,1192.3) scale(0.0839)"/><use href="#c0" transform="translate(184.5,1192.3) scale(0.0839)"/><use href="#c0" transform="translate(217.5,1192.3) scale(0.0839)"/><use href="#c0" transform="translate(283.5,1192.3) scale(0.0839)"/><use href="#c0" transform="translate(349.5,1192.3) scale(0.0839)"/><use href="#c0" transform="translate(415.5,1192.3) scale(0.0839)"/><use href="#c0" transform="translate(481.5,1192.3) scale(0.0839)"/><use href="#c0" transform="translate(547.5,1192.3) scale(0.0839)"/><use href="#c0" transform="translate(613.5,1192.3) scale(0.0839)"/><use href="#c0" transform="translate(679.5,1192.3) scale(0.0839)"/><use href="#c0" transform="translate(745.5,1192.3) scale(0.0839)"/><use href="#c0" transform="translate(811.5,1192.3) scale(0.0839)"/><use href="#c0" transform="translate(877.5,1192.3) scale(0.0839)"/><use href="#c0" transform="translate(943.5,1192.3) scale(0.0839)"/><use href="#c0" transform="translate(1009.5,1192.3) scale(0.0839)"/><use href="#c0" transform="translate(1075.5,1192.3) scale(0.0839)"/><use href="#c0" transform="translate(1141.5,1192.3) scale(0.0839)"/><use href="#c0" transform="translate(1207.5,1192.3) scale(0.0839)"/><use href="#c0" transform="translate(1273.5,1192.3) scale(0.0839)"/><use href="#c0" transform="translate(1339.5,1192.3) scale(0.0839)"/><use href="#c0" transform="translate(1471.5,1192.3) scale(0.0839)"/><use href="#c0" transform="translate(1603.5,1192.3) scale(0.0839)"/><use href="#c0" transform="translate(1735.5,1192.3) scale(0.0839)"/><use href="#c0" transform="translate(1867.5,1192.3) scale(0.0839)"/><use href="#c0" transform="translate(1999.5,1192.3) scale(0.0839)"/><use href="#c0" transform="translate(-25,1225.3) scale(0.0839)"/><use href="#c0" transform="translate(8,1225.3) scale(0.0839)"/><use href="#c0" transform="translate(41,1225.3) scale(0.0839)"/><use href="#c0" transform="translate(74,1225.3) scale(0.0839)"/><use href="#c0" transform="translate(107,1225.3) scale(0.0839)"/><use href="#c0" transform="translate(140,1225.3) scale(0.0839)"/><use href="#c0" transform="translate(173,1225.3) scale(0.0839)"/><use href="#c0" transform="translate(206,1225.3) scale(0.0839)"/><use href="#c0" transform="translate(239,1225.3) scale(0.0839)"/><use href="#c0" transform="translate(272,1225.3) scale(0.0839)"/><use href="#c0" transform="translate(305,1225.3) scale(0.0839)"/><use href="#c0" transform="translate(338,1225.3) scale(0.0839)"/><use href="#c0" transform="translate(371,1225.3) scale(0.0839)"/><use href="#c0" transform="translate(404,1225.3) scale(0.0839)"/><use href="#c0" transform="translate(437,1225.3) scale(0.0839)"/><use href="#c0" transform="translate(503,1225.3) scale(0.0839)"/><use href="#c0" transform="translate(536,1225.3) scale(0.0839)"/><use href="#c0" transform="translate(569,1225.3) scale(0.0839)"/><use href="#c0" transform="translate(635,1225.3) scale(0.0839)"/><use href="#c0" transform="translate(668,1225.3) scale(0.0839)"/><use href="#c0" transform="translate(701,1225.3) scale(0.0839)"/><use href="#c0" transform="translate(767,1225.3) scale(0.0839)"/><use href="#c0" transform="translate(833,1225.3) scale(0.0839)"/><use href="#c0" transform="translate(965,1225.3) scale(0.0839)"/><use href="#c0" transform="translate(1097,1225.3) scale(0.0839)"/><use href="#c0" transform="translate(-36.6,1258.3) scale(0.0839)"/><use href="#c0" transform="translate(-3.6,1258.3) scale(0.0839)"/><use href="#c0" transform="translate(29.4,1258.3) scale(0.0839)"/><use href="#c0" transform="translate(62.4,1258.3) scale(0.0839)"/><use href="#c0" transform="translate(95.4,1258.3) scale(0.0839)"/><use href="#c0" transform="translate(128.4,1258.3) scale(0.0839)"/><use href="#c0" transform="translate(161.4,1258.3) scale(0.0839)"/><use href="#c0" transform="translate(227.4,1258.3) scale(0.0839)"/><use href="#c0" transform="translate(293.4,1258.3) scale(0.0839)"/><use href="#c0" transform="translate(359.4,1258.3) scale(0.0839)"/><use href="#c0" transform="translate(425.4,1258.3) scale(0.0839)"/><use href="#c0" transform="translate(491.4,1258.3) scale(0.0839)"/><use href="#c0" transform="translate(557.4,1258.3) scale(0.0839)"/><use href="#c0" transform="translate(623.4,1258.3) scale(0.0839)"/><use href="#c0" transform="translate(689.4,1258.3) scale(0.0839)"/><use href="#c0" transform="translate(755.4,1258.3) scale(0.0839)"/><use href="#c0" transform="translate(821.4,1258.3) scale(0.0839)"/><use href="#c0" transform="translate(887.4,1258.3) scale(0.0839)"/><use href="#c0" transform="translate(953.4,1258.3) scale(0.0839)"/><use href="#c0" transform="translate(1019.4,1258.3) scale(0.0839)"/><use href="#c0" transform="translate(1085.4,1258.3) scale(0.0839)"/><use href="#c0" transform="translate(1151.4,1258.3) scale(0.0839)"/><use href="#c0" transform="translate(1217.4,1258.3) scale(0.0839)"/><use href="#c0" transform="translate(1283.4,1258.3) scale(0.0839)"/><use href="#c0" transform="translate(1349.4,1258.3) scale(0.0839)"/><use href="#c0" transform="translate(1415.4,1258.3) scale(0.0839)"/><use href="#c0" transform="translate(1481.4,1258.3) scale(0.0839)"/><use href="#c0" transform="translate(1547.4,1258.3) scale(0.0839)"/><use href="#c0" transform="translate(1679.4,1258.3) scale(0.0839)"/><use href="#c0" transform="translate(-15.1,1291.3) scale(0.0839)"/><use href="#c0" transform="translate(17.9,1291.3) scale(0.0839)"/><use href="#c0" transform="translate(50.9,1291.3) scale(0.0839)"/><use href="#c0" transform="translate(83.9,1291.3) scale(0.0839)"/><use href="#c0" transform="translate(116.9,1291.3) scale(0.0839)"/><use href="#c0" transform="translate(149.9,1291.3) scale(0.0839)"/><use href="#c0" transform="translate(182.9,1291.3) scale(0.0839)"/><use href="#c0" transform="translate(215.9,1291.3) scale(0.0839)"/><use href="#c0" transform="translate(248.9,1291.3) scale(0.0839)"/><use href="#c0" transform="translate(281.9,1291.3) scale(0.0839)"/><use href="#c0" transform="translate(314.9,1291.3) scale(0.0839)"/><use href="#c0" transform="translate(347.9,1291.3) scale(0.0839)"/><use href="#c0" transform="translate(380.9,1291.3) scale(0.0839)"/><use href="#c0" transform="translate(413.9,1291.3) scale(0.0839)"/><use href="#c0" transform="translate(446.9,1291.3) scale(0.0839)"/><use href="#c0" transform="translate(479.9,1291.3) scale(0.0839)"/><use href="#c0" transform="translate(512.9,1291.3) scale(0.0839)"/><use href="#c0" transform="translate(578.9,1291.3) scale(0.0839)"/><use href="#c0" transform="translate(710.9,1291.3) scale(0.0839)"/><use href="#c0" transform="translate(776.9,1291.3) scale(0.0839)"/><use href="#c0" transform="translate(842.9,1291.3) scale(0.0839)"/><use href="#c0" transform="translate(908.9,1291.3) scale(0.0839)"/><use href="#c0" transform="translate(1040.9,1291.3) scale(0.0839)"/><use href="#c0" transform="translate(-26.7,1324.3) scale(0.0839)"/><use href="#c0" transform="translate(6.3,1324.3) scale(0.0839)"/><use href="#c0" transform="translate(39.3,1324.3) scale(0.0839)"/><use href="#c0" transform="translate(72.3,1324.3) scale(0.0839)"/><use href="#c0" transform="translate(138.3,1324.3) scale(0.0839)"/><use href="#c0" transform="translate(204.3,1324.3) scale(0.0839)"/><use href="#c0" transform="translate(270.3,1324.3) scale(0.0839)"/><use href="#c0" transform="translate(402.3,1324.3) scale(0.0839)"/><use href="#c0" transform="translate(468.3,1324.3) scale(0.0839)"/><use href="#c0" transform="translate(534.3,1324.3) scale(0.0839)"/><use href="#c0" transform="translate(600.3,1324.3) scale(0.0839)"/><use href="#c0" transform="translate(666.3,1324.3) scale(0.0839)"/><use href="#c0" transform="translate(732.3,1324.3) scale(0.0839)"/><use href="#c0" transform="translate(798.3,1324.3) scale(0.0839)"/><use href="#c0" transform="translate(864.3,1324.3) scale(0.0839)"/><use href="#c0" transform="translate(930.3,1324.3) scale(0.0839)"/><use href="#c0" transform="translate(996.3,1324.3) scale(0.0839)"/><use href="#c0" transform="translate(1062.3,1324.3) scale(0.0839)"/><use href="#c0" transform="translate(1128.3,1324.3) scale(0.0839)"/><use href="#c0" transform="translate(1194.3,1324.3) scale(0.0839)"/><use href="#c0" transform="translate(1260.3,1324.3) scale(0.0839)"/><use href="#c0" transform="translate(1326.3,1324.3) scale(0.0839)"/><use href="#c0" transform="translate(1392.3,1324.3) scale(0.0839)"/><use href="#c0" transform="translate(1458.3,1324.3) scale(0.0839)"/><use href="#c0" transform="translate(1590.3,1324.3) scale(0.0839)"/><use href="#c0" transform="translate(1722.3,1324.3) scale(0.0839)"/><use href="#c0" transform="translate(1854.3,1324.3) scale(0.0839)"/><use href="#c0" transform="translate(2118.3,1324.3) scale(0.0839)"/><use href="#c0" transform="translate(-38.2,1357.3) scale(0.0839)"/><use href="#c0" transform="translate(-5.2,1357.3) scale(0.0839)"/><use href="#c0" transform="translate(27.8,1357.3) scale(0.0839)"/><use href="#c0" transform="translate(60.8,1357.3) scale(0.0839)"/><use href="#c0" transform="translate(93.8,1357.3) scale(0.0839)"/><use href="#c0" transform="translate(126.8,1357.3) scale(0.0839)"/><use href="#c0" transform="translate(159.8,1357.3) scale(0.0839)"/><use href="#c0" transform="translate(192.8,1357.3) scale(0.0839)"/><use href="#c0" transform="translate(225.8,1357.3) scale(0.0839)"/><use href="#c0" transform="translate(258.8,1357.3) scale(0.0839)"/><use href="#c0" transform="translate(291.8,1357.3) scale(0.0839)"/><use href="#c0" transform="translate(324.8,1357.3) scale(0.0839)"/><use href="#c0" transform="translate(357.8,1357.3) scale(0.0839)"/><use href="#c0" transform="translate(390.8,1357.3) scale(0.0839)"/><use href="#c0" transform="translate(423.8,1357.3) scale(0.0839)"/><use href="#c0" transform="translate(456.8,1357.3) scale(0.0839)"/><use href="#c0" transform="translate(522.8,1357.3) scale(0.0839)"/><use href="#c0" transform="translate(555.8,1357.3) scale(0.0839)"/><use href="#c0" transform="translate(588.8,1357.3) scale(0.0839)"/><use href="#c0" transform="translate(654.8,1357.3) scale(0.0839)"/><use href="#c0" transform="translate(720.8,1357.3) scale(0.0839)"/><use href="#c0" transform="translate(852.8,1357.3) scale(0.0839)"/><use href="#c0" transform="translate(984.8,1357.3) scale(0.0839)"/><use href="#c0" transform="translate(1116.8,1357.3) scale(0.0839)"/><use href="#c0" transform="translate(-16.8,1390.3) scale(0.0839)"/><use href="#c0" transform="translate(16.2,1390.3) scale(0.0839)"/><use href="#c0" transform="translate(49.2,1390.3) scale(0.0839)"/><use href="#c0" transform="translate(82.2,1390.3) scale(0.0839)"/><use href="#c0" transform="translate(115.2,1390.3) scale(0.0839)"/><use href="#c0" transform="translate(148.2,1390.3) scale(0.0839)"/><use href="#c0" transform="translate(214.2,1390.3) scale(0.0839)"/><use href="#c0" transform="translate(280.2,1390.3) scale(0.0839)"/><use href="#c0" transform="translate(346.2,1390.3) scale(0.0839)"/><use href="#c0" transform="translate(412.2,1390.3) scale(0.0839)"/><use href="#c0" transform="translate(478.2,1390.3) scale(0.0839)"/><use href="#c0" transform="translate(544.2,1390.3) scale(0.0839)"/><use href="#c0" transform="translate(610.2,1390.3) scale(0.0839)"/><use href="#c0" transform="translate(676.2,1390.3) scale(0.0839)"/><use href="#c0" transform="translate(742.2,1390.3) scale(0.0839)"/><use href="#c0" transform="translate(808.2,1390.3) scale(0.0839)"/><use href="#c0" transform="translate(874.2,1390.3) scale(0.0839)"/><use href="#c0" transform="translate(940.2,1390.3) scale(0.0839)"/><use href="#c0" transform="translate(1006.2,1390.3) scale(0.0839)"/><use href="#c0" transform="translate(1072.2,1390.3) scale(0.0839)"/><use href="#c0" transform="translate(1138.2,1390.3) scale(0.0839)"/><use href="#c0" transform="translate(1204.2,1390.3) scale(0.0839)"/><use href="#c0" transform="translate(1270.2,1390.3) scale(0.0839)"/><use href="#c0" transform="translate(1336.2,1390.3) scale(0.0839)"/><use href="#c0" transform="translate(1402.2,1390.3) scale(0.0839)"/><use href="#c0" transform="translate(1534.2,1390.3) scale(0.0839)"/><use href="#c0" transform="translate(1600.2,1390.3) scale(0.0839)"/><use href="#c0" transform="translate(1666.2,1390.3) scale(0.0839)"/><use href="#c0" transform="translate(-28.3,1423.3) scale(0.0839)"/><use href="#c0" transform="translate(4.7,1423.3) scale(0.0839)"/><use href="#c0" transform="translate(37.7,1423.3) scale(0.0839)"/><use href="#c0" transform="translate(70.7,1423.3) scale(0.0839)"/><use href="#c0" transform="translate(103.7,1423.3) scale(0.0839)"/><use href="#c0" transform="translate(136.7,1423.3) scale(0.0839)"/><use href="#c0" transform="translate(169.7,1423.3) scale(0.0839)"/><use href="#c0" transform="translate(202.7,1423.3) scale(0.0839)"/><use href="#c0" transform="translate(235.7,1423.3) scale(0.0839)"/><use href="#c0" transform="translate(268.7,1423.3) scale(0.0839)"/><use href="#c0" transform="translate(301.7,1423.3) scale(0.0839)"/><use href="#c0" transform="translate(334.7,1423.3) scale(0.0839)"/><use href="#c0" transform="translate(367.7,1423.3) scale(0.0839)"/><use href="#c0" transform="translate(400.7,1423.3) scale(0.0839)"/><use href="#c0" transform="translate(433.7,1423.3) scale(0.0839)"/><use href="#c0" transform="translate(466.7,1423.3) scale(0.0839)"/><use href="#c0" transform="translate(499.7,1423.3) scale(0.0839)"/><use href="#c0" transform="translate(532.7,1423.3) scale(0.0839)"/><use href="#c0" transform="translate(598.7,1423.3) scale(0.0839)"/><use href="#c0" transform="translate(664.7,1423.3) scale(0.0839)"/><use href="#c0" transform="translate(730.7,1423.3) scale(0.0839)"/><use href="#c0" transform="translate(796.7,1423.3) scale(0.0839)"/><use href="#c0" transform="translate(862.7,1423.3) scale(0.0839)"/><use href="#c0" transform="translate(928.7,1423.3) scale(0.0839)"/><use href="#c0" transform="translate(-39.9,1456.3) scale(0.0839)"/><use href="#c0" transform="translate(-6.9,1456.3) scale(0.0839)"/><use href="#c0" transform="translate(26.1,1456.3) scale(0.0839)"/><use href="#c0" transform="translate(59.1,1456.3) scale(0.0839)"/><use href="#c0" transform="translate(92.1,1456.3) scale(0.0839)"/><use href="#c0" transform="translate(158.1,1456.3) scale(0.0839)"/><use href="#c0" transform="translate(191.1,1456.3) scale(0.0839)"/><use href="#c0" transform="translate(224.1,1456.3) scale(0.0839)"/><use href="#c0" transform="translate(290.1,1456.3) scale(0.0839)"/><use href="#c0" transform="translate(356.1,1456.3) scale(0.0839)"/><use href="#c0" transform="translate(422.1,1456.3) scale(0.0839)"/><use href="#c0" transform="translate(488.1,1456.3) scale(0.0839)"/><use href="#c0" transform="translate(554.1,1456.3) scale(0.0839)"/><use href="#c0" transform="translate(620.1,1456.3) scale(0.0839)"/><use href="#c0" transform="translate(686.1,1456.3) scale(0.0839)"/><use href="#c0" transform="translate(752.1,1456.3) scale(0.0839)"/><use href="#c0" transform="translate(818.1,1456.3) scale(0.0839)"/><use href="#c0" transform="translate(884.1,1456.3) scale(0.0839)"/><use href="#c0" transform="translate(950.1,1456.3) scale(0.0839)"/><use href="#c0" transform="translate(1016.1,1456.3) scale(0.0839)"/><use href="#c0" transform="translate(1082.1,1456.3) scale(0.0839)"/><use href="#c0" transform="translate(1148.1,1456.3) scale(0.0839)"/><use href="#c0" transform="translate(1214.1,1456.3) scale(0.0839)"/><use href="#c0" transform="translate(1280.1,1456.3) scale(0.0839)"/><use href="#c0" transform="translate(1346.1,1456.3) scale(0.0839)"/><use href="#c0" transform="translate(1478.1,1456.3) scale(0.0839)"/><use href="#c0" transform="translate(1610.1,1456.3) scale(0.0839)"/><use href="#c0" transform="translate(1742.1,1456.3) scale(0.0839)"/><use href="#c0" transform="translate(1874.1,1456.3) scale(0.0839)"/><use href="#c0" transform="translate(2006.1,1456.3) scale(0.0839)"/></g><g fill="#ff4f00"><use href="#c0" transform="translate(720.8,37.3) scale(0.0839)"/><use href="#c0" transform="translate(412.2,70.3) scale(0.0839)"/><use href="#c0" transform="translate(70.6,103.3) scale(0.0839)"/><use href="#c0" transform="translate(752.1,136.3) scale(0.0839)"/><use href="#c0" transform="translate(-18.4,169.3) scale(0.0839)"/><use href="#c0" transform="translate(-43.2,334.3) scale(0.0839)"/><use href="#c0" transform="translate(121.8,334.3) scale(0.0839)"/><use href="#c0" transform="translate(341.3,367.3) scale(0.0839)"/><use href="#c0" transform="translate(704.3,367.3) scale(0.0839)"/><use href="#c0" transform="translate(285.2,433.3) scale(0.0839)"/><use href="#c0" transform="translate(196.1,499.3) scale(0.0839)"/><use href="#c0" transform="translate(173,565.3) scale(0.0839)"/><use href="#c0" transform="translate(357.8,697.3) scale(0.0839)"/><use href="#c0" transform="translate(478.2,730.3) scale(0.0839)"/><use href="#c0" transform="translate(47.6,829.3) scale(0.0839)"/><use href="#c0" transform="translate(3,862.3) scale(0.0839)"/><use href="#c0" transform="translate(342.9,928.3) scale(0.0839)"/><use href="#c0" transform="translate(88.8,994.3) scale(0.0839)"/><use href="#c0" transform="translate(77.3,1027.3) scale(0.0839)"/><use href="#c0" transform="translate(704.3,1027.3) scale(0.0839)"/><use href="#c0" transform="translate(32.7,1060.3) scale(0.0839)"/><use href="#c0" transform="translate(790.1,1159.3) scale(0.0839)"/><use href="#c0" transform="translate(644.9,1291.3) scale(0.0839)"/><use href="#c0" transform="translate(171.3,1324.3) scale(0.0839)"/><use href="#c0" transform="translate(303.3,1324.3) scale(0.0839)"/><use href="#c0" transform="translate(336.3,1324.3) scale(0.0839)"/></g></svg>